<svg xmlns="http://www.w3.org/2000/svg" viewBox="0 0 1024 1024">
  <defs>
    <style>
      .dark{fill:#054aa0}.blue{fill:#0080ff}.cyan{fill:#00bedc}.white{fill:#fff}
      .line{fill:none;stroke:#054aa0;stroke-width:28;stroke-linecap:round;stroke-linejoin:round}
      .ring{fill:#0080ff;stroke:#00bedc;stroke-width:12}
      .ring2{fill:#00bedc;stroke:#00bedc;stroke-width:12}
      .strokeW{fill:none;stroke:#fff;stroke-width:12;stroke-linecap:round;stroke-linejoin:round}
    </style>
  </defs>
  <polygon class="dark" points="88,430 150,375 505,375 575,425 575,600 505,650 150,650 88,595"/>
  <rect class="white" x="170" y="415" width="335" height="195" rx="38"/>
  <polygon class="blue" points="200,445 480,445 455,580 225,580"/>
  <circle class="white" cx="125" cy="513" r="21"/><circle class="white" cx="535" cy="513" r="21"/>
  <g class="white">
    <circle cx="245" cy="485" r="12"/><circle cx="298" cy="485" r="12"/><circle cx="351" cy="485" r="12"/><circle cx="404" cy="485" r="12"/><circle cx="457" cy="485" r="12"/>
    <circle cx="272" cy="545" r="12"/><circle cx="325" cy="545" r="12"/><circle cx="378" cy="545" r="12"/><circle cx="431" cy="545" r="12"/>
  </g>
  <path class="line" d="M575 512 H640 V250 H735"/>
  <path class="line" d="M640 512 H735"/>
  <path class="line" d="M640 512 V774 H735"/>
  <g>
    <circle class="white" cx="830" cy="250" r="95"/><circle class="ring" cx="830" cy="250" r="85"/>
    <circle class="white" cx="720" cy="250" r="27"/><circle class="cyan" cx="720" cy="250" r="17"/>
    <path class="strokeW" d="M796 222 L840 250 L796 278"/><path class="strokeW" d="M856 278 H895"/>
  </g>
  <g>
    <circle class="white" cx="830" cy="512" r="95"/><circle class="ring2" cx="830" cy="512" r="85"/>
    <circle class="white" cx="720" cy="512" r="27"/><circle class="cyan" cx="720" cy="512" r="17"/>
    <path class="strokeW" d="M785 494 H875"/><polygon class="white" points="875,494 850,474 850,514"/>
    <path class="strokeW" d="M875 536 H785"/><polygon class="white" points="785,536 810,516 810,556"/>
  </g>
  <g>
    <circle class="white" cx="830" cy="774" r="95"/><circle class="ring" cx="830" cy="774" r="85"/>
    <circle class="white" cx="720" cy="774" r="27"/><circle class="cyan" cx="720" cy="774" r="17"/>
    <rect class="white" x="783" y="777" width="18" height="42" rx="4"/>
    <rect class="white" x="821" y="755" width="18" height="64" rx="4"/>
    <rect class="white" x="859" y="729" width="18" height="90" rx="4"/>
  </g>
</svg>